<?xml version="1.0" encoding="UTF-8"?> <!-- Generator: Adobe Illustrator 24.0.1, SVG Export Plug-In . SVG Version: 6.00 Build 0) --> <svg xmlns="http://www.w3.org/2000/svg" xmlns:xlink="http://www.w3.org/1999/xlink" version="1.1" id="Layer_1" x="0px" y="0px" width="474.7px" height="69.3px" viewBox="0 0 474.7 69.3" style="enable-background:new 0 0 474.7 69.3;" xml:space="preserve"> <style type="text/css"> .st0{fill:#1D1D1B;} .st1{fill:#EB5D0B;} </style> <title>Logo Horizontal</title> <g id="Layer_2_1614634579515"> <g id="logosimbolo_1614634579515"> <path class="st0" d="M151.9,25.6c-1.2,0-2.4,0.2-3.5,0.7c-1.1,0.5-2.1,1.1-2.9,2V26H142v24.8 h3.4v-8.6c0.9,0.8,1.9,1.5,3,2c1.1,0.5,2.4,0.7,3.6,0.7c1.3,0,2.7-0.2,3.9-0.7c2.4-1,4.2-2.9,5.2-5.3c0.5-1.2,0.7-2.4,0.7-3.7 c0.1-2.6-1-5.1-2.8-6.9C157.1,26.5,154.5,25.5,151.9,25.6z M156.4,39.8c-1.2,1.2-2.9,1.9-4.6,1.8c-1.7,0-3.4-0.7-4.5-1.9 c-1.2-1.2-1.9-2.9-1.9-4.7c0-1.7,0.7-3.3,1.9-4.4c1.2-1.2,2.8-1.9,4.5-1.9c3.6,0,6.5,2.8,6.6,6.4c0,0.1,0,0.1,0,0.2 C158.3,37,157.6,38.7,156.4,39.8z M106.2,28.3c-0.9-0.9-2-1.6-3.2-2.1c-1.2-0.5-2.5-0.7-3.9-0.7c-1.3,0-2.6,0.3-3.8,0.8 c-1.2,0.5-2.3,1.3-3.2,2.3c-0.9,0.9-1.5,1.9-2,3c-0.9,2.4-0.9,5,0.1,7.3c0.5,1.2,1.2,2.3,2.1,3.2c0.9,0.9,2,1.7,3.2,2.2 c1.2,0.5,2.5,0.7,3.9,0.7c1.3,0,2.6-0.3,3.9-0.8c1.2-0.6,2.3-1.3,3.3-2.3c0.9-0.9,1.5-2,2-3.1c0.5-1.2,0.7-2.4,0.7-3.7 c0-1.2-0.3-2.5-0.8-3.6C107.9,30.2,107.1,29.1,106.2,28.3z M103.8,39.8c-1.2,1.2-2.8,1.9-4.4,1.8c-1.7,0-3.3-0.6-4.5-1.8 c-1.2-1.2-1.9-2.9-1.8-4.6c-0.1-1.7,0.6-3.4,1.8-4.6c2.5-2.5,6.5-2.5,9,0c1.2,1.2,1.8,2.9,1.8,4.6C105.6,36.9,105,38.5,103.8,39.8 z M77.6,28.8c1.2,0,2.4,0.3,3.4,0.8c1,0.6,1.8,1.5,2.3,2.5h3.8c-0.6-2-1.9-3.7-3.5-4.9C82,26,80,25.4,77.9,25.5 c-1.4,0-2.7,0.3-3.9,0.8c-1.2,0.5-2.4,1.3-3.3,2.3c-0.9,0.9-1.5,1.9-2,3.1C68.2,32.8,68,34,68,35.2c0,1.3,0.3,2.5,0.8,3.7 c0.5,1.1,1.2,2.2,2.1,3.1c0.9,0.9,2,1.7,3.2,2.2c1.2,0.5,2.5,0.7,3.9,0.7c2,0.1,4.1-0.5,5.7-1.7c1.7-1.3,2.9-3,3.6-5h-3.8 c-0.5,1.1-1.3,2-2.3,2.6c-1,0.6-2.1,0.9-3.3,0.9c-1.7,0-3.3-0.6-4.5-1.8c-1.2-1.2-1.9-2.9-1.8-4.6c0-1.7,0.6-3.4,1.8-4.6 C74.4,29.4,76,28.7,77.6,28.8L77.6,28.8z M131.3,25.8c-1.2,0-2.5,0.2-3.6,0.8c-1,0.6-1.8,1.4-2.3,2.4c-0.5-1-1.3-1.8-2.3-2.4 c-1.1-0.5-2.3-0.8-3.5-0.8c-0.9,0-1.9,0.2-2.7,0.6c-0.8,0.4-1.6,1.1-2.2,1.8V26h-3v18.4h3.3V35c-0.1-1.7,0.2-3.3,1-4.8 c0.7-1,2-1.6,3.3-1.5c1.2-0.1,2.4,0.5,3.1,1.5c0.8,1.5,1.1,3.2,1,4.9v9.3h3.3v-9.6c-0.1-1.6,0.2-3.3,1-4.7c1.6-1.7,4.3-1.9,6-0.3 c0.1,0.1,0.1,0.1,0.2,0.2c0.8,1.1,1.2,2.4,1.1,3.7v10.7h3.4V33.2c0.1-2-0.6-4-2-5.4C135.1,26.3,133.2,25.6,131.3,25.8L131.3,25.8z M234.1,28.3c-0.9-0.9-1.9-1.5-3-2c-1.1-0.5-2.4-0.7-3.6-0.7c-1.3,0-2.6,0.2-3.9,0.7c-2.3,1-4.2,2.9-5.2,5.2 c-0.5,1.2-0.7,2.4-0.7,3.7c-0.1,2.6,1,5.1,2.9,6.9c1.9,1.9,4.5,2.8,7.1,2.8c1.2,0,2.4-0.2,3.5-0.7c1.1-0.5,2.1-1.1,2.9-2v2.2h3.5 V26h-3.5L234.1,28.3z M232.4,39.8c-1.2,1.2-2.8,1.9-4.5,1.9c-3.6,0.1-6.5-2.8-6.6-6.3c0-0.1,0-0.2,0-0.2c0-1.7,0.7-3.3,1.9-4.5 c1.2-1.2,2.9-1.9,4.6-1.8c1.7,0,3.4,0.7,4.6,1.9c1.2,1.2,1.9,2.9,1.9,4.6C234.3,37,233.6,38.6,232.4,39.8L232.4,39.8z M246.7,26.4 c-0.8,0.4-1.5,1.1-1.9,1.8V26h-3.2v18.4h3.4V34.2c-0.1-1.3,0.2-2.6,1-3.7c0.9-0.9,2.1-1.3,3.3-1.3v-3.5 C248.4,25.7,247.5,25.9,246.7,26.4L246.7,26.4z M211.7,33.7l-1.2-0.5c-1.9-0.7-2.8-1.5-2.8-2.5c0-0.6,0.2-1.1,0.6-1.5 c0.4-0.4,1-0.6,1.5-0.6c0.6,0,1.2,0.2,1.6,0.6c0.4,0.4,0.7,1,0.7,1.6h3.3c0-1.4-0.6-2.8-1.6-3.9c-1.1-1-2.5-1.5-3.9-1.4 c-1.5,0-2.9,0.5-4,1.6c-1.1,1-1.6,2.4-1.6,3.8c0,0.8,0.1,1.6,0.5,2.3c0.4,0.7,0.9,1.3,1.5,1.8c0.8,0.5,1.7,0.9,2.6,1.2 c0.5,0.2,0.9,0.3,1.2,0.4c0.7,0.2,1.3,0.6,1.8,1.1c0.4,0.5,0.6,1,0.6,1.6c0,0.7-0.3,1.4-0.8,1.8c-0.5,0.5-1.3,0.7-2,0.7 c-0.8,0-1.6-0.3-2.1-1c-0.6-0.7-0.9-1.5-0.8-2.4h-3.2c0,1.7,0.6,3.4,1.8,4.7c1.1,1.2,2.7,1.8,4.3,1.7c1.6,0,3.2-0.6,4.3-1.6 c1.1-1.1,1.8-2.6,1.7-4.1c0.1-1.2-0.3-2.4-0.9-3.4C214,34.8,212.9,34,211.7,33.7L211.7,33.7z M181.3,29c-0.8-0.8-1.8-1.6-2.8-2.1 c-0.9-0.5-1.9-0.9-2.9-1.1c-1.6-0.3-3.3-0.3-4.8,0.2c-1.6,0.4-3,1.3-4.1,2.4c-1,0.9-1.7,2-2.2,3.2c-0.5,1.2-0.7,2.5-0.6,3.8 c0,1.2,0.3,2.4,0.8,3.5c1.1,2.3,3,4.2,5.4,5.1c1.2,0.5,2.5,0.8,3.8,0.8c1.3,0,2.6-0.2,3.8-0.6c1-0.4,1.8-0.9,2.6-1.6v-4.7 c0-0.1,0-0.3-0.2-0.1c-0.4,0.7-1,1.3-1.6,1.9c-1.1,1-2.5,1.7-3.9,1.8c-1.5,0.1-3-0.3-4.3-1.2l11.4-11L181.3,29z M168.2,38.1 c-0.8-1.2-1.1-2.6-0.9-4c0.2-1.4,0.8-2.6,1.8-3.6c1-1,2.2-1.6,3.6-1.7c1.5-0.1,2.9,0.2,4.1,1L168.2,38.1z M193.1,25.7 c-1,0-2,0.2-2.9,0.6c-0.9,0.4-1.7,1-2.4,1.8V26h-3.3v18.4h3.5V36c0-2.6,0.4-4.4,1.1-5.5c1.8-2.1,5-2.2,7.1-0.4 c0,0,0.1,0.1,0.1,0.1c0.9,1.3,1.3,2.8,1.1,4.3v9.8h3.4V33.9c0.2-2.2-0.6-4.4-2-6.1C197.4,26.3,195.3,25.5,193.1,25.7z M305.9,9.5 h-3.6V26H300V9.5h-3.1V7.6h3.1V5.9c0-3.2,0.9-5.4,4.5-5.4c0.6,0,1.3,0,1.9,0.1v1.9c-0.5-0.1-1.1-0.2-1.6-0.2 c-2.5,0-2.4,1.6-2.5,3.6v1.6h3.6L305.9,9.5z M322.9,26h-2.1v-3.3h-0.1c-1.2,2.4-3.7,3.9-6.3,3.9c-4.6,0-6.5-2.7-6.5-7V7.6h2.3v12 c0.1,3.3,1.4,5.1,4.9,5.1c3.9,0,5.5-3.6,5.5-7.4V7.6h2.2L322.9,26z M327.1,7.6h2.3v3.2h0.1c1-2.3,3.3-3.8,5.9-3.7 c5.2,0,6.7,2.7,6.7,7.1V26h-2.2V14.5c0-3.2-1-5.6-4.7-5.6s-5.7,2.7-5.8,6.3V26h-2.3L327.1,7.6z M362.5,26h-2.1v-3.5h-0.1 c-1,2.4-3.9,4-6.6,4c-5.6,0-8.3-4.5-8.3-9.7s2.7-9.7,8.3-9.7c2.8-0.1,5.3,1.5,6.4,4h0.1V0.5h2.2V26z M353.8,24.6 c4.8,0,6.5-4,6.5-7.8S358.6,9,353.8,9c-4.3,0-6,4-6,7.9S349.5,24.6,353.8,24.6z M366.5,13.2c0.2-4.3,3.3-6.2,7.5-6.2 c3.3,0,6.8,1,6.8,5.9v9.8c-0.1,0.7,0.4,1.3,1,1.4c0.1,0,0.2,0,0.3,0c0.2,0,0.5-0.1,0.7-0.1v1.9c-0.5,0.1-1,0.2-1.5,0.1 c-2.3,0-2.6-1.3-2.6-3.2h-0.1c-1.6,2.4-3.2,3.7-6.7,3.7s-6.2-1.7-6.2-5.4c0-5.2,5-5.4,9.9-5.9c1.9-0.2,2.9-0.5,2.9-2.5 c0-3-2.2-3.8-4.8-3.8s-4.9,1.3-4.9,4.3L366.5,13.2z M378.5,15.9L378.5,15.9c-0.4,0.5-1.4,0.7-2,0.8c-3.8,0.7-8.6,0.6-8.6,4.2 c0.1,2.1,1.9,3.7,4,3.6c0,0,0.1,0,0.1,0c3.4,0,6.5-2.2,6.4-5.8V15.9z M398.3,13.4C397.6,10.6,396,9,393,9c-4.3,0-6.5,3.9-6.5,7.9 s2.1,7.8,6.5,7.8c2.9-0.1,5.2-2.4,5.4-5.2h2.3c-0.6,4.4-3.5,7.1-7.6,7.1c-5.6,0-8.7-4.5-8.7-9.7s3.1-9.7,8.7-9.7 c3.9,0,7,2.1,7.5,6.3L398.3,13.4z M403.8,0.5h2.3v3.6h-2.3V0.5z M403.8,7.6h2.3V26h-2.3V7.6z M426.8,16.8c0,5.3-3.1,9.7-8.7,9.7 s-8.7-4.5-8.7-9.7s3.1-9.7,8.7-9.7S426.9,11.5,426.8,16.8L426.8,16.8z M411.6,16.8c0,3.9,2.1,7.8,6.5,7.8s6.5-3.9,6.5-7.8 S422.5,9,418.1,9S411.7,12.9,411.6,16.8L411.6,16.8z M417.9,5H416l3.8-5h2.8L417.9,5z M430.2,7.6h2.2v3.2h0.1 c1-2.3,3.4-3.8,5.9-3.7c5.2,0,6.7,2.7,6.7,7.1V26h-2.3V14.5c0-3.2-1-5.6-4.7-5.6s-5.7,2.7-5.8,6.3V26h-2.2V7.6z M311.8,62.8h-2.1 v-3.3h-0.1c-1.2,2.4-3.7,3.9-6.4,3.8c-4.6,0-6.5-2.7-6.5-7v-12h2.3v12c0.1,3.3,1.4,5.1,4.9,5.1c3.9,0,5.5-3.6,5.5-7.4v-9.6h2.3 L311.8,62.8z M316,44.4h2.2v3.2h0.1c1-2.3,3.3-3.8,5.9-3.7c5.2,0,6.7,2.7,6.7,7.1v11.8h-2.3V51.3c0-3.2-1-5.6-4.7-5.6 s-5.7,2.7-5.8,6.3v10.7H316V44.4z M335.2,37.3h2.2v3.6h-2.2V37.3z M335.2,44.4h2.2v18.4h-2.2V44.4z M339.7,44.4h2.5l5.8,16.2l0,0 l5.7-16.2h2.3l-6.9,18.4h-2.4L339.7,44.4z M359.6,54.2c0,3.3,1.8,7.2,6.1,7.2c3.3,0,5.1-1.9,5.8-4.7h2.2c-1,4.2-3.4,6.6-8,6.6 c-5.9,0-8.3-4.5-8.3-9.7c0-4.8,2.5-9.7,8.3-9.7s8.3,5.2,8.1,10.3L359.6,54.2z M371.5,52.3c-0.1-3.4-2.2-6.6-5.9-6.6 s-5.7,3.2-6.1,6.6L371.5,52.3z M376.8,44.4h2.1v4.3h0.1c1-2.9,3.9-4.8,7-4.6v2.3c-3.5-0.3-6.6,2.3-6.9,5.8c0,0.3,0,0.6,0,0.8v9.8 h-2.2L376.8,44.4z M399,49.8c-0.1-2.8-2.3-4-4.8-4c-2,0-4.4,0.8-4.4,3.2c0,2,2.3,2.7,3.8,3.1l3,0.7c2.6,0.4,5.3,1.9,5.3,5.1 c0,4-4,5.5-7.4,5.5c-4.3,0-7.2-2-7.6-6.5h2.3c0.2,3,2.4,4.6,5.4,4.6c2.1,0,5-0.9,5-3.5c0-2.1-2-2.8-4-3.3l-2.9-0.6 c-2.9-0.8-5.1-1.8-5.1-4.9c0-3.8,3.7-5.2,6.9-5.2c3.7,0,6.6,1.9,6.7,5.9L399,49.8z M405.2,37.3h2.2v3.6h-2.2V37.3z M405.2,44.4 h2.2v18.4h-2.2V44.4z M415.3,44.4h3.8v1.9h-3.8v12.4c0,1.5,0.2,2.3,1.8,2.4c0.6,0,1.3,0,1.9-0.1v1.9c-0.7,0-1.3,0.1-2,0.1 c-3,0-4-1-4-4.1V46.3h-3.2v-1.9h3.2v-5.5h2.2L415.3,44.4z M422.1,50c0.2-4.3,3.2-6.2,7.5-6.2c3.3,0,6.8,1,6.8,5.9v9.8 c-0.1,0.7,0.4,1.3,1,1.3c0.1,0,0.2,0,0.3,0c0.2,0,0.5-0.1,0.7-0.1v1.9c-0.5,0.1-1,0.2-1.5,0.1c-2.3,0-2.6-1.3-2.6-3.2h-0.1 c-1.6,2.4-3.2,3.8-6.7,3.8s-6.2-1.7-6.2-5.4c0-5.2,5-5.3,9.9-5.9c1.9-0.2,2.9-0.5,2.9-2.5c0-3-2.2-3.8-4.8-3.8 c-2.8,0-4.9,1.3-4.9,4.3L422.1,50z M434.1,52.7H434c-0.3,0.5-1.3,0.7-1.9,0.8c-3.8,0.7-8.6,0.6-8.6,4.2c0.1,2.1,1.9,3.7,4,3.6 c0,0,0.1,0,0.1,0c3.4,0,6.5-2.2,6.4-5.8L434.1,52.7z M440.8,44.4h2.1v4.3h0.1c1-2.9,3.9-4.8,7-4.6v2.3c-3.5-0.3-6.5,2.3-6.8,5.8 c0,0.3,0,0.5,0,0.8v9.8h-2.3L440.8,44.4z M452.1,37.3h2.2v3.6h-2.3L452.1,37.3z M452.1,44.4h2.2v18.4h-2.3L452.1,44.4z M458.4,50 c0.2-4.3,3.3-6.2,7.5-6.2c3.2,0,6.8,1,6.8,5.9v9.8c-0.1,0.7,0.3,1.3,1,1.4c0.1,0,0.2,0,0.3,0c0.2,0,0.5-0.1,0.7-0.1v1.9 c-0.5,0.1-1,0.2-1.5,0.1c-2.3,0-2.6-1.3-2.6-3.2h-0.1c-1.6,2.4-3.2,3.8-6.7,3.8s-6.2-1.7-6.2-5.4c0-5.2,5-5.3,9.9-5.9 c1.9-0.2,2.9-0.5,2.9-2.5c0-3-2.2-3.8-4.8-3.8s-4.9,1.2-4.9,4.2H458.4z M470.4,52.7L470.4,52.7c-0.4,0.5-1.4,0.7-2,0.8 c-3.8,0.7-8.5,0.6-8.5,4.2c0.1,2.1,1.9,3.7,4,3.6c0,0,0.1,0,0.1,0c3.4,0,6.5-2.2,6.4-5.8L470.4,52.7z"></path> <path class="st1" d="M34,23.9L34,23.9c6.3,0,11.3,5.1,11.3,11.3l0,0c0,6.3-5.1,11.3-11.3,11.3 l0,0c-6.3,0-11.3-5.1-11.3-11.3c0,0,0,0,0,0l0,0C22.7,28.9,27.7,23.9,34,23.9C34,23.9,34,23.9,34,23.9z M34,23.9L34,23.9 c6.3,0,11.3-5.1,11.3-11.3l0,0c0-6.3-5.1-11.3-11.3-11.3c0,0,0,0,0,0l0,0c-6.3,0-11.3,5.1-11.3,11.3l0,0 C22.7,18.8,27.7,23.9,34,23.9L34,23.9z M68,12.5L68,12.5c0-6.3-5.1-11.3-11.3-11.3c0,0,0,0,0,0l0,0c-6.3,0-11.3,5.1-11.3,11.3l0,0 c0,6.3,5.1,11.3,11.3,11.3l0,0l0,0C62.9,23.9,68,18.8,68,12.5z M11.3,23.9L11.3,23.9C5.1,23.9,0,28.9,0,35.2c0,0,0,0,0,0l0,0 c0,6.3,5.1,11.3,11.3,11.3l0,0c6.3,0,11.3-5.1,11.3-11.3l0,0C22.7,28.9,17.6,23.9,11.3,23.9L11.3,23.9z M34,69.2L34,69.2 c6.3,0,11.3-5.1,11.3-11.3l0,0c0-6.3-5.1-11.3-11.3-11.3l0,0c-6.3,0-11.3,5.1-11.3,11.3c0,0,0,0,0,0l0,0 C22.7,64.1,27.7,69.2,34,69.2C34,69.2,34,69.2,34,69.2z M68,57.9L68,57.9c0-6.3-5.1-11.3-11.3-11.3c0,0,0,0,0,0l0,0 c-6.3,0-11.3,5.1-11.3,11.3l0,0c0,6.3,5.1,11.3,11.3,11.3l0,0C62.9,69.2,68,64.1,68,57.9C68,57.9,68,57.9,68,57.9z M271.9,69.3 h2.3v-68h-2.3V69.3z"></path> </g> </g> </svg> 